<svg xmlns="http://www.w3.org/2000/svg" width="1200" height="800" viewBox="0 0 1200 800">
  <defs>
    <linearGradient id="bg2" x1="0%" y1="0%" x2="100%" y2="100%">
      <stop offset="0%" style="stop-color:#0a0000"/>
      <stop offset="100%" style="stop-color:#1a0808"/>
    </linearGradient>
  </defs>

  <rect width="1200" height="800" fill="url(#bg2)"/>

  <!-- Title -->
  <text x="600" y="60" text-anchor="middle" font-family="system-ui,sans-serif" font-weight="800" font-size="36" fill="#f5f0f0">
    🦀 ClawOS vs the field
  </text>
  <rect x="500" y="72" width="200" height="2" rx="1" fill="#e53935" opacity="0.5"/>

  <!-- Table header -->
  <rect x="50" y="100" width="1100" height="44" rx="8" fill="rgba(229,57,53,0.08)"/>
  <text x="250" y="128" text-anchor="middle" font-family="system-ui,sans-serif" font-size="14" font-weight="700" fill="#e53935">FEATURE</text>
  <text x="500" y="128" text-anchor="middle" font-family="system-ui,sans-serif" font-size="14" font-weight="700" fill="#e53935">🦀 CLAWOS</text>
  <text x="700" y="128" text-anchor="middle" font-family="system-ui,sans-serif" font-size="14" font-weight="700" fill="#9a8888">ODYSSEUS</text>
  <text x="880" y="128" text-anchor="middle" font-family="system-ui,sans-serif" font-size="14" font-weight="700" fill="#9a8888">OPEN WEBUI</text>
  <text x="1060" y="128" text-anchor="middle" font-family="system-ui,sans-serif" font-size="14" font-weight="700" fill="#9a8888">JAN</text>

  <!-- Table rows -->
  <g font-family="system-ui,sans-serif" font-size="15">
    <!-- Voice -->
    <rect x="50" y="152" width="1100" height="40" rx="0" fill="rgba(229,57,53,0.03)"/>
    <text x="250" y="178" text-anchor="middle" fill="#9a8888">Voice Activation</text>
    <text x="500" y="178" text-anchor="middle" fill="#22c55e" font-weight="600">✅ "Hey Claw"</text>
    <text x="700" y="178" text-anchor="middle" fill="#4a3a3a">❌</text>
    <text x="880" y="178" text-anchor="middle" fill="#4a3a3a">❌</text>
    <text x="1060" y="178" text-anchor="middle" fill="#4a3a3a">❌</text>

    <!-- Approval -->
    <rect x="50" y="196" width="1100" height="40" rx="0" fill="none"/>
    <text x="250" y="222" text-anchor="middle" fill="#9a8888">Approval Gates</text>
    <text x="500" y="222" text-anchor="middle" fill="#22c55e" font-weight="600">✅ Native popup</text>
    <text x="700" y="222" text-anchor="middle" fill="#4a3a3a">❌ Shell access</text>
    <text x="880" y="222" text-anchor="middle" fill="#4a3a3a">❌</text>
    <text x="1060" y="222" text-anchor="middle" fill="#4a3a3a">❌</text>

    <!-- Workflows -->
    <rect x="50" y="240" width="1100" height="40" rx="0" fill="rgba(229,57,53,0.03)"/>
    <text x="250" y="266" text-anchor="middle" fill="#9a8888">Agent Workflows</text>
    <text x="500" y="266" text-anchor="middle" fill="#22c55e" font-weight="600">✅ 29 built-in</text>
    <text x="700" y="266" text-anchor="middle" fill="#22c55e">✅ Skills</text>
    <text x="880" y="266" text-anchor="middle" fill="#4a3a3a">❌</text>
    <text x="1060" y="266" text-anchor="middle" fill="#4a3a3a">❌</text>

    <!-- A2A -->
    <rect x="50" y="284" width="1100" height="40" rx="0" fill="none"/>
    <text x="250" y="310" text-anchor="middle" fill="#9a8888">Multi-Agent (A2A)</text>
    <text x="500" y="310" text-anchor="middle" fill="#22c55e" font-weight="600">✅ Agent mesh</text>
    <text x="700" y="310" text-anchor="middle" fill="#4a3a3a">❌ Single agent</text>
    <text x="880" y="310" text-anchor="middle" fill="#4a3a3a">❌</text>
    <text x="1060" y="310" text-anchor="middle" fill="#4a3a3a">❌</text>

    <!-- Memory -->
    <rect x="50" y="328" width="1100" height="40" rx="0" fill="rgba(229,57,53,0.03)"/>
    <text x="250" y="354" text-anchor="middle" fill="#9a8888">Structured Memory</text>
    <text x="500" y="354" text-anchor="middle" fill="#22c55e" font-weight="600">✅ 7 layers</text>
    <text x="700" y="354" text-anchor="middle" fill="#9a8888">⚠️ Flat vectors</text>
    <text x="880" y="354" text-anchor="middle" fill="#9a8888">⚠️ Flat</text>
    <text x="1060" y="354" text-anchor="middle" fill="#9a8888">⚠️ Flat</text>

    <!-- Bootable ISO -->
    <rect x="50" y="372" width="1100" height="40" rx="0" fill="none"/>
    <text x="250" y="398" text-anchor="middle" fill="#9a8888">Bootable ISO</text>
    <text x="500" y="398" text-anchor="middle" fill="#22c55e" font-weight="600">✅ Flash &amp; go</text>
    <text x="700" y="398" text-anchor="middle" fill="#4a3a3a">❌</text>
    <text x="880" y="398" text-anchor="middle" fill="#4a3a3a">❌</text>
    <text x="1060" y="398" text-anchor="middle" fill="#4a3a3a">❌</text>

    <!-- Zero telemetry -->
    <rect x="50" y="416" width="1100" height="40" rx="0" fill="rgba(229,57,53,0.03)"/>
    <text x="250" y="442" text-anchor="middle" fill="#9a8888">Zero Telemetry</text>
    <text x="500" y="442" text-anchor="middle" fill="#22c55e" font-weight="600">✅ Verify it</text>
    <text x="700" y="442" text-anchor="middle" fill="#22c55e">✅</text>
    <text x="880" y="442" text-anchor="middle" fill="#22c55e">✅</text>
    <text x="1060" y="442" text-anchor="middle" fill="#22c55e">✅</text>
  </g>

  <!-- Bottom line -->
  <rect x="50" y="470" width="1100" height="1" fill="rgba(229,57,53,0.15)"/>

  <!-- CTA -->
  <text x="600" y="520" text-anchor="middle" font-family="system-ui,sans-serif" font-size="22" font-weight="700" fill="#f5f0f0">
    Ollama gave you a local model.
  </text>
  <text x="600" y="555" text-anchor="middle" font-family="system-ui,sans-serif" font-size="22" font-weight="700" fill="#e53935">
    ClawOS gives you a local agent.
  </text>

  <!-- Install command -->
  <rect x="350" y="590" width="500" height="44" rx="10" fill="rgba(229,57,53,0.08)" stroke="rgba(229,57,53,0.20)" stroke-width="1"/>
  <text x="600" y="618" text-anchor="middle" font-family="'SF Mono','Fira Code',monospace" font-size="14" fill="#ff6b6b">
    curl -fsSL https://clawos.ai/install.sh | bash
  </text>

  <!-- URL -->
  <text x="600" y="700" text-anchor="middle" font-family="system-ui,sans-serif" font-size="14" fill="#4a3a3a">
    github.com/xbrxr03/clawos · Open Source · AGPL-3.0
  </text>

  <!-- Corner brackets -->
  <path d="M30 30 L30 10 L50 10" stroke="#e53935" stroke-width="1" fill="none" opacity="0.3"/>
  <path d="M1170 30 L1170 10 L1150 10" stroke="#e53935" stroke-width="1" fill="none" opacity="0.3"/>
  <path d="M30 770 L30 790 L50 790" stroke="#e53935" stroke-width="1" fill="none" opacity="0.3"/>
  <path d="M1170 770 L1170 790 L1150 790" stroke="#e53935" stroke-width="1" fill="none" opacity="0.3"/>
</svg>