<svg xmlns="http://www.w3.org/2000/svg" width="1200" height="630" viewBox="0 0 1200 630">
  <defs>
    <linearGradient id="bg" x1="0%" y1="0%" x2="100%" y2="100%">
      <stop offset="0%" style="stop-color:#0a0000"/>
      <stop offset="50%" style="stop-color:#1a0808"/>
      <stop offset="100%" style="stop-color:#0a0000"/>
    </linearGradient>
    <linearGradient id="accent" x1="0%" y1="0%" x2="100%" y2="0%">
      <stop offset="0%" style="stop-color:#e53935"/>
      <stop offset="100%" style="stop-color:#ff6b6b"/>
    </linearGradient>
    <radialGradient id="glow" cx="50%" cy="40%" r="50%">
      <stop offset="0%" style="stop-color:#e53935;stop-opacity:0.15"/>
      <stop offset="100%" style="stop-color:#0a0000;stop-opacity:0"/>
    </radialGradient>
  </defs>

  <!-- Background -->
  <rect width="1200" height="630" fill="url(#bg)"/>
  <rect width="1200" height="630" fill="url(#glow)"/>

  <!-- Scan line -->
  <line x1="0" y1="315" x2="1200" y2="315" stroke="#e53935" stroke-opacity="0.06" stroke-width="1"/>

  <!-- Corner brackets -->
  <path d="M40 40 L40 20 L60 20" stroke="#e53935" stroke-width="1.5" fill="none" opacity="0.4"/>
  <path d="M1160 40 L1160 20 L1140 20" stroke="#e53935" stroke-width="1.5" fill="none" opacity="0.4"/>
  <path d="M40 590 L40 610 L60 610" stroke="#e53935" stroke-width="1.5" fill="none" opacity="0.4"/>
  <path d="M1160 590 L1160 610 L1140 610" stroke="#e53935" stroke-width="1.5" fill="none" opacity="0.4"/>

  <!-- Crab emoji -->
  <text x="600" y="200" text-anchor="middle" font-size="80">🦀</text>

  <!-- Title -->
  <text x="600" y="290" text-anchor="middle" font-family="system-ui,-apple-system,sans-serif" font-weight="800" font-size="56" fill="#f5f0f0" letter-spacing="-2">
    ClawOS
  </text>

  <!-- Tagline -->
  <text x="600" y="340" text-anchor="middle" font-family="system-ui,-apple-system,sans-serif" font-weight="400" font-size="24" fill="#9a8888">
    Your laptop. Your AI. Your rules.
  </text>

  <!-- Accent line -->
  <rect x="520" y="365" width="160" height="3" rx="1.5" fill="url(#accent)"/>

  <!-- Feature badges -->
  <g transform="translate(600, 420)" text-anchor="middle" font-family="system-ui,-apple-system,sans-serif">
    <!-- Row 1 -->
    <rect x="-400" y="-14" width="160" height="28" rx="14" fill="rgba(229,57,53,0.12)" stroke="rgba(229,57,53,0.25)" stroke-width="1"/>
    <text x="-320" y="5" font-size="12" font-weight="600" fill="#ff6b6b">🗣️ Voice Activation</text>

    <rect x="-220" y="-14" width="160" height="28" rx="14" fill="rgba(229,57,53,0.12)" stroke="rgba(229,57,53,0.25)" stroke-width="1"/>
    <text x="-140" y="5" font-size="12" font-weight="600" fill="#ff6b6b">🛡️ Approval Gates</text>

    <rect x="-40" y="-14" width="160" height="28" rx="14" fill="rgba(229,57,53,0.12)" stroke="rgba(229,57,53,0.25)" stroke-width="1"/>
    <text x="40" y="5" font-size="12" font-weight="600" fill="#ff6b6b">🧠 7-Layer Memory</text>

    <rect x="140" y="-14" width="160" height="28" rx="14" fill="rgba(229,57,53,0.12)" stroke="rgba(229,57,53,0.25)" stroke-width="1"/>
    <text x="220" y="5" font-size="12" font-weight="600" fill="#ff6b6b">🤖 Agent Mesh</text>

    <!-- Row 2 -->
    <rect x="-310" y="26" width="160" height="28" rx="14" fill="rgba(34,197,94,0.10)" stroke="rgba(34,197,94,0.20)" stroke-width="1"/>
    <text x="-230" y="45" font-size="12" font-weight="600" fill="#22c55e">⚡ 29 Workflows</text>

    <rect x="-130" y="26" width="160" height="28" rx="14" fill="rgba(34,197,94,0.10)" stroke="rgba(34,197,94,0.20)" stroke-width="1"/>
    <text x="-50" y="45" font-size="12" font-weight="600" fill="#22c55e">🔒 Zero Telemetry</text>

    <rect x="50" y="26" width="160" height="28" rx="14" fill="rgba(34,197,94,0.10)" stroke="rgba(34,197,94,0.20)" stroke-width="1"/>
    <text x="130" y="45" font-size="12" font-weight="600" fill="#22c55e">💿 Bootable ISO</text>
  </g>

  <!-- Bottom text -->
  <text x="600" y="540" text-anchor="middle" font-family="system-ui,-apple-system,sans-serif" font-size="14" fill="#4a3a3a">
    Open Source · AGPL-3.0 · Self-hosted · Zero cloud
  </text>

  <!-- URL -->
  <text x="600" y="575" text-anchor="middle" font-family="'SF Mono','Fira Code',monospace" font-size="13" fill="#9a8888">
    github.com/xbrxr03/clawos
  </text>
</svg>